<svg id="Layer_1" data-name="Layer 1" xmlns="http://www.w3.org/2000/svg" viewBox="0 0 1920 122"><defs><style>.cls-1{fill:#f8b131;}</style></defs><title>header menu</title><path class="cls-1" d="M1920,0H0V77.17a3.54,3.54,0,0,0,1.66.1c-.81-3,1.45.33,2.54-3,1.15,2,3.54.92,4.82,1.81C9.34,74.73,8.71,74,7.13,74c1.34-2,1.57,1.52,3.49,1-.39-.7-1.56-.84-1.19-2.07,4.08,3,13.29,5.6,17.4,5.09-.15-.76-1-1.76-1.33-.79.14-3.17,7.25,3.47,9.8,2.33-.71-6.86,13.09,1,17.18,1.18,1,0,2,1.5,2,1.5s8-3.63,10.13-.22c-.32-2.16,9.62.33,8.47,1.55,2.19.54,1.86-1.79,4.43-.82-.48-1-2.18-1.17-3.4-1.66,6.74-1.91,11.16,1.66,15.34,4.22a1.85,1.85,0,0,0,1.68-1.77c1.55.06,0,2.3.3,3.28,2.2-1.67,3.87-.6,5.31-2,4.66,4.15,12.44,1.91,14.71,3.51-.5-1,2.69-1.08,1.68-1.77,3.47-1.18,2.75,2,7,2,1.61-.26-1.09-2.26-1.82-2.79,0-1.6,3.85,3.27,6.8,3.32,1.8-.4-1.38-2.06-.23-3.91,3.61,2.51,1.2,2.66,3.71,4.93,1-.09.79-1.54,1-2.48,3,2.79,6.14,4.41,9.18,1.62.31,3.86,3.26-.79,2.52,2.87,2.4-1.82,3.65.16,5.31-2,2.08.65-.85,1.3-.33,2.56,3.08-2.22,7.55-.33,8.57-4.92-.45,2.54.87,5.71,3.62,5.56,1.86,0-.84-1.2.33-2.55,1.55.64,1.25,2.61,3.24,2.94,3.66-1.88,7.55-3.47,11.09-2.07,1.84-.25-1.1-1.84-.31-3.27.25,1.24,3.33,2.77,2.93-.33,1.68,0,.56,1.92,1.89,2.15,1.28.07,4-3.87,4.35-.19,1.34,0,.73-2.12,1.76-2.42,2.39.53-1.52,3.4.31,3.28,2.88.5.55-1.3,1-2.48.45,2.58,6.08-.2,4,2.38,2.35-.55,4.1-2.19,6.58-.6-1.57-1.46-.58-1.09-1-3.36,2.46,1,3.57-1,6.33,1.32,1.36-1.14.05-.82.34-2.55,3.29-1,12.85,4.26,13.61.8,3.37-.6,7.79,2.71,10.76.49,2.18,2.9,6.21.13,9.82,2.34.28-1.08-1-1.79.23-1.92,2.51.35.08,1,1.11,2.71,5.32-.47,1,1,6.33,1.32,0-.76-1.23-.68-2.06-.87,6-.7,6.21.72,9.89,1.71,1.27.22.86-1.45,1-2.54,1.4-.09,2.78-.22,4.11-.39,2.2.34,4.31.68,3.65-.33l2.55-.17c2,.89,4.29,2.22,5-.34l.3,0c1.23,1.6,3.5,1,3.51-.24h0l1.68,0a20.92,20.92,0,0,0,11,1,1.85,1.85,0,0,0-.57-.58c21.93,1.49,43.13,1.35,62.82-1.91l35.33-.76a68.73,68.73,0,0,0,17.81,1.49c7.75-1.3,19.46-.87,25.35-3a62.22,62.22,0,0,1,13.72.85c5.95-.25,12.6,0,17.45-1.13,8.18.4,10.74-1.12,14.48-2.19l10.39.84c7.07,1.13,14.41,3.13,23,2.2,12.61-1.41,25.08-.34,37.41-.79h7.27l7.14.93c1.17-.09,2.28-.14,3.46-.23,4,.26,7.83.31,10.6-.59,1.18,0,2.42,0,3.67,0,6,.93,9.49-.39,14-.76,5.68.06,11.36.09,17.05.12,4.22,1,10,.53,15,.84,5.89-.06,11.77-.17,17.66-.22a109.48,109.48,0,0,0,24.66.5c6.17-.56,11.71-1,18-.28,2.49-.28,5-.51,7.48-.79l10.11-.33a23.48,23.48,0,0,0,7.28-.62l10.8-.17,20.92.08,3.33.93c2.42-.11,4.92-.17,7.34-.28,6.7-.33,11.53-1,11.76-2.72,6.49,1.93,12.71,4.21,18,3.41-.75-1-5.21-1.6-5.73-1.23-.29-.68-.59-1.36-1.49-1.59,1.55-1.5,4.46.51,2.8-2.71,7,3.81,12-1.57,18.18,2.27,1.79.47,4.81-1.79,2.8-2.7,3.8-.73,8.21,3.89,12,5.43,1.54-.53,1.38-2.87,4.39-1.84a5.85,5.85,0,0,0-2.33-1.67c.61-.39,8.27,2.6,6.23,4.22,1.23-1,4.82-.65,5.82.49,1.52-2.67-3.7-.46-2.17-3.14.85.94,6.14,2.43,5.14-1,3.56,2.75,13.37,3.3,16.27,4.32,5.92,2.36,11,.56,17.9-2.9.06-.72-.94-.65-1.58-.87,7.76-1.54,8.61,3.31,17.27,2.94-.44-1-1.63-1.51-3.16-1.75-1.27-1.83,5,.85,5.64,2,1.64-1.41,3-1,2.06-3.51,1.68.36,1.41,2.11,3.09,2.47,1.26-.22-.23-1,.24-2.19,7,.4,24.52,5.81,23.63-1.67,8.3,1,13.08-1.92,19.48-2a1.75,1.75,0,0,1-1.66,1.27c4.61.72,8.53,5.5,15.05,6.5,7,1.08,18-4.83,21.4,3.29a5.28,5.28,0,0,1,3.4-.44c.48,1.43,2.43.71.6,2.25,3,.43,7.95-1.63,11.7.26,3-5.06,14.28.55,16.32-3.76,1.35,1.53,7.74,6.11,9,1.5.67,3.39,13.63,2,6-1.7,1.41-.32,5.37,3.26,7,5,2.85-.41.27-1.62,2-2.78,1.08,3.22,2-1.3,6.48,2-.17-1.64,4.08-1.71,4.72-4.77,3.73,3.21,4.26,1.31,9.72,3,1.39-2.42,11.34-6.28,15.25-1.66,10.36-5,23.54-4.13,34.42-.76,4.88.3,10.91-3.75,17.65-.71,1.07-.09,1-1.38.17-1.45,6.08-.07,17.85,1,21.39-4.09,5.05,4.64,24.67.17,31.37,4.15,14-1.68,24.1-7,41.37-3.13,2.25-1.55,1.34-2.27.66-3.89.45.09.94.17,1.48.24a30.89,30.89,0,0,0,11.36,2.09l1.78.56c3.68-.12,7.28-.28,11-.42,1,.14,2.15.3,3,.47,1.17,0,2.28,0,3.46,0,6.38,1.27,14.14.62,21.26.76a76.65,76.65,0,0,0,21.28.59c1.24,0,2.42.09,3.59.11,3.68-.47,7.28-1,11-1.49,4.65-.25,9.29-.5,14-.73l3.53.68c6.72.93,10,3.37,21.06,2.3a2.39,2.39,0,0,1,.28-.67c3.46-.25,7-.54,10.45-.82l3.75-.84a4.87,4.87,0,0,1-.12-.52l-.65-.24h.63c-.61-.25-.31-.45.05-.67,0,0,0-.06,0-.09h.14l-.16.09a3.07,3.07,0,0,0-.05.67,1.94,1.94,0,0,0,0,.24c.37.15.57.32.12.52,3.88.08,8.17-.09,10.67.87,3.53.56,7.06,1.15,10.66,1.75,3.54-.62,7.13-1.27,10.67-1.92,2.29,0,4.5,0,6.72,0,1.38-2.22,8.8-1.27,14.2-1.38a8.22,8.22,0,0,0,3.19-.25c.13,0,.35,0,.48.06l3.81.08c1.32.73,4.37.67,7,.87,2.36.2,4.71.4,7.14.59,7.47,1.41,16.21.87,24.65.79,6.86,1.63,14.13-.11,21.2.17,3.19-.56,8,.11,10.81-.7l13.78-.26c1.18-.17,1.73-.39,2-.67,1.52-.06,3.11-.09,4.64-.12.07.06-.07.15,0,.23,5.19.39,9.56,1.27,15.17,1.46,1.18,0,2.28.06,3.46.06-.79-.27-.45-.54.07-.78v0h.07l-.07,0a2.91,2.91,0,0,0-.07.78c3,1.91,12.75,1.35,17.81,2.5,4.22.82,9.62.31,14.26.65h-.06a15.78,15.78,0,0,0,6.16,0,31.46,31.46,0,0,0,7.9.87h7.06l.83.79c1.12,2,7.76,1.57,13.58,1.52,3.88,0,8,.14,11-.68l9.91.42c1.31.31,2.63.62,3.94,1,9.08.87,18.91.25,28.2.73l20.24,1.15h0c1,1.52,1.8,3.1,11.09,3.1,1.45.51,2.91,1,4.36,1.46,2.91,0,11.48,0,14.23-.73V92c.54.13,1.13.27,1.8.45a6.38,6.38,0,0,0,2.62-3.61c3.19.25-.85,1.57-.41,3.19,3.53-3.65,6-.33,8.65-5.55.86.92,1.18,2.09,2.14.22,1,.4-.38.79-.24,1.92,2.32.46,1.17-3.06,4.51-1.46,0-1.19-2.36-.65-2.68-1.58-1.32-2.18,4,2.53,5,.53.93.3.37,1.66.39,2.63.69-.29,1.29-1.66,1.49-.49,1.1-.16-.17-.84.24-1.92,1.34.41.26,2.54,2.62,2.22,1.71,0-.58-1.81-1.2-2.07,1.23,0,4.74,3.23,5.06,5.72,1-1.27,3.51-.89,4-2.81,1,1.08-1,3.13,2.44,3.5.59-1.76.73.31,1.67-1.77.58,2,2.82.14,1.18,2.07,1.41.36,2.24.1,2.3-1a30.26,30.26,0,0,1,3.24,2.93c3-.49,3.92-2.15,7.28-.52.88-2.74-1.48.36-1.26-1.43,3.12-2.93,7.68-.29,9.19-4.21,7.91,3.36,20.8,2.17,23.5,8.32,1-.09.78-1.52,1-2.48,1.65,1.56,3.12,3.22,6,3.88-3.72-2.54,5.3-.36,5.62,1.25,1-.11.79-1.54,1-2.49,1.65.5,3.39,3.16,7.75,1.48.82.19.46,1.23.48,2,1.39-1.77,9.28,2.57,12.34-.62,1.66,1.25,1.83,1.8,3.87,3.65a4.52,4.52,0,0,0,1.67-1.77c-5.37-.51,1.55-3-1.48-5.34,1.41-.78,3.4,3,3.7,4.93,1.47-1.51,3.24-2.66,4.21-4.74,5-.06,11,2.72,13.6,6.63,3.18.53,5.1-1.74,8.63.28,1.19-2.6,1.37-4.9.17-7.12-.33-1.73,2,3.74,3,4.85,1.09-1.73,4-.87,4.51-1.46.83.2.46,1.23.47,2,1.6.35,2.7.14,3-1,.94.3.39,1.66.38,2.63a3.62,3.62,0,0,0,2.39-1.69c.89,1.39,4.4,3.45,3.63-.26,2.65-.14.49,3.14,2.46,3.49,2.41-.78-2.21-2.65.48-3.83.7.55-.16,1.93,1,3.35,1-.13,1.27-1,2.3-1.06.49-1.49-3.28,0-1.88-2.13,1.29,1.55,2.36-.32,3.47,1-1.71-2.51-.1-1.81.57-4.48,0,3.67,8.15,3,6.33,1.33,1.14-1,2.07,3,3.31,2.29,1.11-.16-.18-.85.25-1.92,1.57-.14,2.72,4.22,3.48,1,.82.19.46,1.23.46,2,.86,0,.76-1.09,1-1.83A14.08,14.08,0,0,0,1876,104c1-.1.79-1.54,1-2.48.82.19.46,1.23.47,2,2.14-.33.92-.87,1-2.48,2.49.36,1.3,3.33,4.65,3.08-1.77-3.51,0-.29,3.1-1.6-2.07,2.34,1.16-.61.47,2,1.74-1.78,4,.35,7.91.2,9.35,5,19.45,7.57,24.36,12.94l1,.12Z"/></svg>